# xmcd
#
# Track frame offsets: 
#        150
#        12193
#        24221
#        35909
#        46536
#        63411
#        72276
#        85746
#        100766
#        115519
#        131704
#        145047
#        165020
#        178425
#        189307
#        201054
#        212877
#        225489
#        238957
#        256672
#        284852
#        305972
#        318777
#
# Disc length: 4519 seconds
#
# Revision: 0
# Processed by: cddbd v1.5.2PL0 Copyright (c) Steve Scherf et al.
# Submitted via: ExactAudioCopy v0.95b3
#
DISCID=3d11a517
DTITLE=Ray Charles - The Definitive Ray Charles
DYEAR=2001
DGENRE=Soul
TTITLE0=It Should've Been Me
TTITLE1=Leave My Woman Alone
TTITLE2=Lonely Avenue
TTITLE3=I'm Movin' On
TTITLE4=Don't Let The Sun Catch You Crying
TTITLE5=Hit The Road Jack
TTITLE6=At The Club
TTITLE7=Born To Lose
TTITLE8=You Don't Know Me
TTITLE9=Your Cheatin' Heart
TTITLE10=Take These Chains From My Heart
TTITLE11=That Lucky Old Sun
TTITLE12=Crying Time
TTITLE13=Cincinnati Kid
TTITLE14=I Don't Need No Doctor
TTITLE15=In The Heat Of The Night
TTITLE16=Yesterday
TTITLE17=Eleanor Rigby
TTITLE18=I Can Make It Thru' The Days
TTITLE19=Rainy Night In Georgia
TTITLE20=The Jealous Kind
TTITLE21=Shake Your Tailfeather (with The Blues Brothers)
TTITLE22=Imagine
EXTD=
EXTT0=
EXTT1=
EXTT2=
EXTT3=
EXTT4=
EXTT5=
EXTT6=
EXTT7=
EXTT8=
EXTT9=
EXTT10=
EXTT11=
EXTT12=
EXTT13=
EXTT14=
EXTT15=
EXTT16=
EXTT17=
EXTT18=
EXTT19=
EXTT20=
EXTT21=
EXTT22=
PLAYORDER=
